<svg width="386" height="386" viewBox="0 0 386 386" fill="none" xmlns="http://www.w3.org/2000/svg">
<rect width="386" height="386" fill="black"/>
<path d="M166.943 176C166.307 173.788 165.413 171.833 164.261 170.136C163.11 168.409 161.701 166.955 160.034 165.773C158.398 164.561 156.519 163.636 154.398 163C152.307 162.364 149.989 162.045 147.443 162.045C142.686 162.045 138.504 163.227 134.898 165.591C131.322 167.955 128.534 171.394 126.534 175.909C124.534 180.394 123.534 185.879 123.534 192.364C123.534 198.848 124.519 204.364 126.489 208.909C128.458 213.455 131.246 216.924 134.852 219.318C138.458 221.682 142.716 222.864 147.625 222.864C152.08 222.864 155.883 222.076 159.034 220.5C162.216 218.894 164.64 216.636 166.307 213.727C168.004 210.818 168.852 207.379 168.852 203.409L172.852 204H148.852V189.182H187.807V200.909C187.807 209.091 186.08 216.121 182.625 222C179.17 227.848 174.413 232.364 168.352 235.545C162.292 238.697 155.352 240.273 147.534 240.273C138.807 240.273 131.14 238.348 124.534 234.5C117.928 230.621 112.777 225.121 109.08 218C105.413 210.848 103.58 202.364 103.58 192.545C103.58 185 104.67 178.273 106.852 172.364C109.064 166.424 112.155 161.394 116.125 157.273C120.095 153.152 124.716 150.015 129.989 147.864C135.261 145.712 140.973 144.636 147.125 144.636C152.398 144.636 157.307 145.409 161.852 146.955C166.398 148.47 170.428 150.621 173.943 153.409C177.489 156.197 180.383 159.515 182.625 163.364C184.867 167.182 186.307 171.394 186.943 176H166.943ZM260.091 145.909H279.773V206.364C279.773 213.152 278.152 219.091 274.909 224.182C271.697 229.273 267.197 233.242 261.409 236.091C255.621 238.909 248.879 240.318 241.182 240.318C233.455 240.318 226.697 238.909 220.909 236.091C215.121 233.242 210.621 229.273 207.409 224.182C204.197 219.091 202.591 213.152 202.591 206.364V145.909H222.273V204.682C222.273 208.227 223.045 211.379 224.591 214.136C226.167 216.894 228.379 219.061 231.227 220.636C234.076 222.212 237.394 223 241.182 223C245 223 248.318 222.212 251.136 220.636C253.985 219.061 256.182 216.894 257.727 214.136C259.303 211.379 260.091 208.227 260.091 204.682V145.909Z" fill="white"/>
</svg>
